<svg xmlns="http://www.w3.org/2000/svg" viewBox="0 0 131.1 131.1"><circle fill="#0073BE" cx="65.6" cy="65.6" r="65.6"/><path fill="none" stroke="#FFF" stroke-width="2.86" stroke-linecap="round" stroke-linejoin="round" stroke-miterlimit="10" d="M8.3 65.6C8.3 34 34 8.3 65.6 8.3c31.6 0 57.2 25.6 57.2 57.2s-25.6 57.2-57.2 57.2C34 122.8 8.3 97.2 8.3 65.6z"/><path fill="#FFF" d="M97.8 106.3c0 1.2-1 2.2-2.2 2.2H36.1c-1.2 0-2.2-1-2.2-2.2V55.1c0-1.2 1-2.2 2.2-2.2h59.5c1.2 0 2.2 1 2.2 2.2v51.2zM50.3 47.6v-6.8c.1-8.5 7.1-15.4 15.6-15.4 8.6 0 15.6 7 15.6 15.6v6.7h7.8V41c0-12.9-10.5-23.4-23.4-23.4C53 17.6 42.5 28.1 42.5 41v6.6h7.8z"/><path fill="#0073BE" d="M74.8 74.7c0-5-4-9-9-9s-9 4-9 9c0 3.1 1.6 5.8 4 7.4l-2.3 13.6h14.6l-2.2-13.6c2.4-1.6 3.9-4.3 3.9-7.4z"/><circle fill="#FFF" stroke="#0073BE" stroke-width="3" stroke-miterlimit="10" cx="97.1" cy="97.5" r="16.1"/><path fill="#0073BE" d="M92.7 106.5h-.3c-.7-.1-1.1-.8-1-1.5l3.4-15.6c.2-.7.8-1.1 1.5-1 .7.1 1.1.8 1 1.5L94 105.5c-.2.6-.7 1-1.3 1zM99.5 106.5h-.3c-.7-.1-1.1-.8-1-1.5l3.4-15.6c.1-.7.8-1.1 1.5-1 .7.1 1.1.8 1 1.5l-3.4 15.6c-.1.6-.6 1-1.2 1z"/><path fill="#0073BE" d="M92.7 106.5h-.3c-.7-.1-1.1-.8-1-1.5l3.4-15.6c.2-.7.8-1.1 1.5-1 .7.1 1.1.8 1 1.5L94 105.5c-.2.6-.7 1-1.3 1zM99.5 106.5h-.3c-.7-.1-1.1-.8-1-1.5l3.4-15.6c.1-.7.8-1.1 1.5-1 .7.1 1.1.8 1 1.5l-3.4 15.6c-.1.6-.6 1-1.2 1z"/><path fill="#0073BE" d="M106.4 95h-16c-.7 0-1.3-.6-1.3-1.3 0-.7.6-1.3 1.3-1.3h16c.7 0 1.3.6 1.3 1.3 0 .8-.5 1.3-1.3 1.3zM105.2 101.6h-16c-.7 0-1.3-.6-1.3-1.3 0-.7.6-1.3 1.3-1.3h16c.7 0 1.3.6 1.3 1.3-.1.8-.6 1.3-1.3 1.3z"/></svg>