<?xml version="1.0" encoding="utf-8"?>
<!-- Generator: Adobe Illustrator 18.0.0, SVG Export Plug-In . SVG Version: 6.00 Build 0)  -->
<!DOCTYPE svg PUBLIC "-//W3C//DTD SVG 1.1//EN" "http://www.w3.org/Graphics/SVG/1.1/DTD/svg11.dtd">
<svg version="1.1" id="Layer_1" xmlns="http://www.w3.org/2000/svg" xmlns:xlink="http://www.w3.org/1999/xlink" x="0px" y="0px"
	 viewBox="0 0 300 300" enable-background="new 0 0 300 300" xml:space="preserve">
<g>
	<g>
		<circle fill="#EB008B" cx="150.7" cy="150" r="145.3"/>
	</g>
	<g>
		<g>
			<path fill="#2B3D51" d="M205.3,99.9c0-7.4-24.4-13.3-54.6-13.3c-30.1,0-54.6,6-54.6,13.3v43.1c0,0.3,0,0.5,0.1,0.8
				c-0.1,0.5-0.1,0.9-0.1,1.4c0,12.7,24.4,23,54.6,23c30.1,0,54.6-10.3,54.6-23c0-0.5,0-0.9-0.1-1.4c0.1-0.3,0.1-0.5,0.1-0.8V99.9z"
				/>
		</g>
		<g>
			<polygon fill="#344960" points="150.7,57.9 64.9,91.1 150.7,124.3 236.6,91.1 			"/>
		</g>
		<g>
			<polygon fill="#FFFFFF" points="234.8,90.2 150.7,90.2 150.7,92 234.8,92 234.8,120.4 236.6,120.4 236.6,92 236.6,90.2 			"/>
		</g>
		<g>
			<path fill="#FFFFFF" d="M235.8,119.7c-1.9,0-3.5,1.6-3.5,3.5v2.1v2.7v5.8h1.1v-3.2c0.2,0.2,0.4,0.4,0.7,0.5v2.7h1.1v-2.3
				c0.2,0,0.4,0,0.6,0c0.2,0,0.4,0,0.6,0v2.3h1.1v-2.7c0.2-0.1,0.5-0.3,0.7-0.5v3.2h1.1v-5.8v-2.7v-2.1
				C239.2,121.2,237.7,119.7,235.8,119.7z"/>
		</g>
		<g>
			<circle fill="#FFFFFF" cx="235.8" cy="117.1" r="4"/>
		</g>
	</g>
	<g>
		<g>
			<g>
				<path fill="#ECF0F1" d="M238.8,175.6H65.9c-7.5,0-13.6,8-13.6,17.9s6.1,17.9,13.6,17.9h172.9c7.5,0,13.6-8,13.6-17.9
					S246.3,175.6,238.8,175.6z"/>
			</g>
			<g>
				<defs>
					<path id="SVGID_3_" d="M238.8,175.6H65.9c-7.5,0-13.6,8-13.6,17.9s6.1,17.9,13.6,17.9h172.9c7.5,0,13.6-8,13.6-17.9
						S246.3,175.6,238.8,175.6z"/>
				</defs>
				<clipPath id="SVGID_1_">
					<use xlink:href="#SVGID_3_"  overflow="visible"/>
				</clipPath>
				<g clip-path="url(#SVGID_1_)">
					<rect x="50.3" y="174.5" fill="#DCE1E5" width="214.2" height="19.1"/>
				</g>
			</g>
		</g>
		<g>
			<g>
				<path fill="#B50074" d="M154.9,212.6L154.9,212.6c-3.5,0-6.3-2.8-6.3-6.3v-25.4c0-3.5,2.8-6.3,6.3-6.3l0,0
					c3.5,0,6.3,2.8,6.3,6.3v25.4C161.2,209.7,158.4,212.6,154.9,212.6z"/>
			</g>
			<g>
				<g>
					<path fill="#B50074" d="M154.9,174.7l19.8-24.1c0.4-0.5,1.1-0.2,1.2,0.4l0.7,15c0,0.3,0.3,0.6,0.6,0.6l16.3,1.7
						c0.7,0.1,0.8,1,0.2,1.3L160,181.7c-0.3,0.1-0.6,0-0.7-0.2l-4.4-6C154.7,175.2,154.7,174.9,154.9,174.7z"/>
				</g>
				<g>
					<path fill="#B50074" d="M154.9,174.7l-19.8-24.1c-0.4-0.5-1.1-0.2-1.2,0.4l-0.7,15c0,0.3-0.3,0.6-0.6,0.6l-16.3,1.7
						c-0.7,0.1-0.8,1-0.2,1.3l33.6,12.1c0.3,0.1,0.6,0,0.7-0.2l4.4-6C155.1,175.2,155.1,174.9,154.9,174.7z"/>
				</g>
			</g>
		</g>
	</g>
</g>
</svg>
