<svg xmlns="http://www.w3.org/2000/svg" viewBox="0 0 131.1 131.1"><circle fill="#0073BE" cx="65.6" cy="65.6" r="65.6"/><path fill="none" stroke="#FFF" stroke-width="2.86" stroke-linecap="round" stroke-linejoin="round" stroke-miterlimit="10" d="M8.3 65.6C8.3 34 34 8.3 65.6 8.3c31.6 0 57.2 25.6 57.2 57.2s-25.6 57.2-57.2 57.2C34 122.8 8.3 97.2 8.3 65.6z"/><path fill="#FFF" d="M107.3 83.4c0 2.4-1.9 4.3-4.3 4.3H37.7c-2.4 0-4.3-1.9-4.3-4.3V37.5c0-2.4 1.9-4.3 4.3-4.3H103c2.4 0 4.3 1.9 4.3 4.3v45.9z"/><path fill="#0073BE" d="M39.5 40h61v35.4h-61z"/><circle fill="#0073BE" cx="70.3" cy="81.5" r="2.3"/><g fill="#FFF"><path d="M80.7 94.5H60c-1.5 0-2.7 1.5-2.7 3.4h26.2c-.1-1.9-1.3-3.4-2.8-3.4z"/><path d="M71.2 90.7H62.4l1.2 4.2h13.5l1.1-4.2z"/></g><path fill="#FFF" d="M28.2 98.5c-2.8 0-5.1-2.3-5.1-5.1v-45c0-2.8 2.3-5.1 5.1-5.1H46c2.8 0 5.1 2.3 5.1 5.1v45c0 2.8-2.3 5.1-5.1 5.1H28.2z"/><path fill="#0073BE" d="M45.9 44.2c2.4 0 4.3 1.9 4.3 4.3v45c0 2.4-1.9 4.3-4.3 4.3H28.2c-2.4 0-4.3-1.9-4.3-4.3v-45c0-2.4 1.9-4.3 4.3-4.3h17.7m0-1.6H28.2c-3.2 0-5.8 2.6-5.8 5.8v45c0 3.2 2.6 5.8 5.8 5.8H46c3.2 0 5.8-2.6 5.8-5.8v-45c0-3.2-2.6-5.8-5.9-5.8z"/><path fill="#0073BE" stroke="#0073BE" stroke-width="1.524" stroke-linejoin="round" d="M28.3 48.6h17.3v3.7H28.3zM28.3 56.9h17.3v3.7H28.3zM28.3 65.2h17.3v3.7H28.3z"/><circle fill="#0073BE" cx="29.9" cy="83.4" r="1.1"/><circle fill="#0073BE" cx="29.9" cy="76.9" r="2.3"/><circle fill="#0073BE" cx="36.9" cy="76.9" r="2.3"/><circle fill="#0073BE" cx="38.2" cy="91.2" r="1.3"/><circle fill="#0073BE" cx="44.3" cy="91.2" r="1.3"/><path fill="#FFF" d="M94.2 60.7l-10.4-3.1c-.1 0-.2 0-.3.1-.1.1-.1.2-.1.3l3.1 10.4c0 .1.1.2.3.2.1 0 .2 0 .3-.1l1.9-3 3.2 3.2c.1.1.3.1.5 0l1.8-1.8c.1-.1.1-.3 0-.5l-3.2-3.2 3-1.9c.1-.1.2-.2.1-.3 0-.2-.1-.3-.2-.3z"/></svg>